<?xml version="1.0" encoding="UTF-8"?>
<svg xmlns="http://www.w3.org/2000/svg" viewBox="0 0 800 600" width="800" height="600">
  <defs>
    <style>
      .title { font: bold 20px sans-serif; fill: #333; }
      .label { font: 14px sans-serif; fill: #333; }
      .small { font: 12px sans-serif; fill: #666; }
      .box { fill: #e3f2fd; stroke: #1976d2; stroke-width: 2; }
      .queue { fill: #fff3e0; stroke: #f57c00; stroke-width: 2; }
      .db { fill: #f3e5f5; stroke: #7b1fa2; stroke-width: 2; }
      .arrow { fill: none; stroke: #333; stroke-width: 2; marker-end: url(#arrowhead); }
      .seq { fill: #4caf50; stroke: #2e7d32; stroke-width: 2; }
      .event { fill: #fff; stroke: #666; stroke-width: 1; }
    </style>
    <marker id="arrowhead" markerWidth="10" markerHeight="10" refX="9" refY="3" orient="auto">
      <polygon points="0 0, 10 3, 0 6" fill="#333" />
    </marker>
  </defs>

  <!-- Title -->
  <text x="400" y="30" text-anchor="middle" class="title">Event Ordering Guarantee</text>
  <text x="400" y="50" text-anchor="middle" class="small">Monotonically Increasing Sequence Numbers</text>

  <!-- Serial Event Queue -->
  <rect x="50" y="80" width="200" height="80" class="queue" rx="5"/>
  <text x="150" y="105" text-anchor="middle" class="label">Serial Event Queue</text>
  <text x="150" y="125" text-anchor="middle" class="small">dispatch_queue_create()</text>
  <text x="150" y="145" text-anchor="middle" class="small">DISPATCH_QUEUE_SERIAL</text>

  <!-- Sequence Number Generator -->
  <rect x="300" y="80" width="200" height="80" class="seq" rx="5"/>
  <text x="400" y="105" text-anchor="middle" class="label" fill="#fff">Sequence Generator</text>
  <text x="400" y="125" text-anchor="middle" class="small" fill="#fff">self.sequenceNumber++</text>
  <text x="400" y="145" text-anchor="middle" class="small" fill="#fff">Atomic Increment</text>

  <!-- Database Persistence -->
  <rect x="550" y="80" width="200" height="80" class="db" rx="5"/>
  <text x="650" y="105" text-anchor="middle" class="label">Database</text>
  <text x="650" y="125" text-anchor="middle" class="small">persistEvent(seq, data)</text>
  <text x="650" y="145" text-anchor="middle" class="small">WAL Mode</text>

  <!-- Arrows between components -->
  <path d="M 250 120 L 300 120" class="arrow"/>
  <path d="M 500 120 L 550 120" class="arrow"/>

  <!-- Event Flow Timeline -->
  <text x="50" y="210" class="label">Event Timeline:</text>
  
  <!-- Event 1 -->
  <rect x="50" y="230" width="150" height="60" class="event" rx="3"/>
  <text x="125" y="250" text-anchor="middle" class="small">Event 1</text>
  <text x="125" y="268" text-anchor="middle" class="label">seq = 1000</text>
  <text x="125" y="283" text-anchor="middle" class="small">t = 10:00:00.000</text>

  <!-- Arrow -->
  <path d="M 200 260 L 230 260" class="arrow"/>

  <!-- Event 2 -->
  <rect x="230" y="230" width="150" height="60" class="event" rx="3"/>
  <text x="305" y="250" text-anchor="middle" class="small">Event 2</text>
  <text x="305" y="268" text-anchor="middle" class="label">seq = 1001</text>
  <text x="305" y="283" text-anchor="middle" class="small">t = 10:00:00.100</text>

  <!-- Arrow -->
  <path d="M 380 260 L 410 260" class="arrow"/>

  <!-- Event 3 -->
  <rect x="410" y="230" width="150" height="60" class="event" rx="3"/>
  <text x="485" y="250" text-anchor="middle" class="small">Event 3</text>
  <text x="485" y="268" text-anchor="middle" class="label">seq = 1002</text>
  <text x="485" y="283" text-anchor="middle" class="small">t = 10:00:00.200</text>

  <!-- Arrow -->
  <path d="M 560 260 L 590 260" class="arrow"/>

  <!-- Event N -->
  <rect x="590" y="230" width="150" height="60" class="event" rx="3"/>
  <text x="665" y="250" text-anchor="middle" class="small">Event N</text>
  <text x="665" y="268" text-anchor="middle" class="label">seq = 1000+N</text>
  <text x="665" y="283" text-anchor="middle" class="small">t = 10:00:N.000</text>

  <!-- Guarantees Section -->
  <text x="50" y="340" class="label">Ordering Guarantees:</text>
  
  <rect x="50" y="360" width="700" height="220" fill="#f5f5f5" stroke="#999" stroke-width="1" rx="5"/>
  
  <!-- Guarantee 1 -->
  <circle cx="70" cy="385" r="5" fill="#4caf50"/>
  <text x="85" y="390" class="small">
    <tspan font-weight="bold">Monotonic Sequence Numbers:</tspan> seq(N+1) = seq(N) + 1
  </text>
  
  <!-- Guarantee 2 -->
  <circle cx="70" cy="415" r="5" fill="#4caf50"/>
  <text x="85" y="420" class="small">
    <tspan font-weight="bold">Total Ordering:</tspan> All subscribers see events in the same order
  </text>
  
  <!-- Guarantee 3 -->
  <circle cx="70" cy="445" r="5" fill="#4caf50"/>
  <text x="85" y="450" class="small">
    <tspan font-weight="bold">No Gaps:</tspan> Sequence numbers are never skipped (unless events pruned)
  </text>
  
  <!-- Guarantee 4 -->
  <circle cx="70" cy="475" r="5" fill="#4caf50"/>
  <text x="85" y="480" class="small">
    <tspan font-weight="bold">No Reuse:</tspan> Sequence numbers are never reused
  </text>
  
  <!-- Guarantee 5 -->
  <circle cx="70" cy="505" r="5" fill="#4caf50"/>
  <text x="85" y="510" class="small">
    <tspan font-weight="bold">Crash Recovery:</tspan> Sequence continues from max(seq) after restart
  </text>
  
  <!-- Guarantee 6 -->
  <circle cx="70" cy="535" r="5" fill="#4caf50"/>
  <text x="85" y="540" class="small">
    <tspan font-weight="bold">Causality Preserved:</tspan> If A happens-before B, then seq(A) &lt; seq(B)
  </text>
  
  <!-- Guarantee 7 -->
  <circle cx="70" cy="565" r="5" fill="#4caf50"/>
  <text x="85" y="570" class="small">
    <tspan font-weight="bold">Cross-Event-Type Ordering:</tspan> All event types share same sequence space
  </text>
</svg>
