<svg viewBox="0 0 1200 1000" xmlns="http://www.w3.org/2000/svg">
  <!-- Define styles -->
  <defs>
    <style>
      .box { fill: #e8f4f8; stroke: #0066cc; stroke-width: 2; }
      .registry { fill: #fff4e6; stroke: #ff9900; stroke-width: 2; }
      .module { fill: #e8f5e9; stroke: #4caf50; stroke-width: 2; }
      .text { font-family: Arial, sans-serif; font-size: 13px; text-anchor: middle; }
      .title { font-family: Arial, sans-serif; font-size: 18px; font-weight: bold; text-anchor: middle; }
      .arrow { stroke: #333; stroke-width: 2; fill: none; marker-end: url(#arrowhead); }
      .label { font-family: Arial, sans-serif; font-size: 11px; fill: #333; text-anchor: middle; }
      .code { font-family: monospace; font-size: 11px; fill: #333; text-anchor: start; }
      .step { font-family: Arial, sans-serif; font-size: 12px; font-weight: bold; fill: #333; text-anchor: middle; }
    </style>
    <marker id="arrowhead" markerWidth="10" markerHeight="10" refX="9" refY="3" orient="auto">
      <polygon points="0 0, 10 3, 0 6" fill="#333" />
    </marker>
  </defs>

  <!-- Title -->
  <text x="600" y="30" class="title">XRPC Method Registration Flow</text>

  <!-- Step 1: PDSApplication Initialization -->
  <rect x="350" y="60" width="500" height="80" class="box" rx="5"/>
  <text x="600" y="85" class="step">Step 1: PDSApplication Initialization</text>
  <text x="600" y="105" class="text">PDSApplication creates XrpcMethodRegistry</text>
  <text x="360" y="125" class="code">registry = [[XrpcMethodRegistry alloc] initWithServices:services]</text>

  <!-- Arrow -->
  <path d="M 600 140 L 600 180" class="arrow"/>

  <!-- Step 2: Registry Initialization -->
  <rect x="350" y="180" width="500" height="80" class="registry" rx="5"/>
  <text x="600" y="205" class="step">Step 2: XrpcMethodRegistry Initialization</text>
  <text x="600" y="225" class="text">Registry creates internal NSID → Handler map</text>
  <text x="360" y="245" class="code">self.methodHandlers = [NSMutableDictionary dictionary]</text>

  <!-- Arrow -->
  <path d="M 600 260 L 600 300" class="arrow"/>

  <!-- Step 3: Register Domain Modules -->
  <rect x="350" y="300" width="500" height="80" class="registry" rx="5"/>
  <text x="600" y="325" class="step">Step 3: Register Domain Modules</text>
  <text x="600" y="345" class="text">Registry calls registerMethods on each domain module</text>
  <text x="360" y="365" class="code">[self registerServerMethods]; [self registerRepoMethods]; ...</text>

  <!-- Arrows to domain modules -->
  <path d="M 400 380 L 155 440" class="arrow"/>
  <text x="260" y="410" class="label">registerServerMethods</text>

  <path d="M 500 380 L 385 440" class="arrow"/>
  <text x="420" y="410" class="label">registerRepoMethods</text>

  <path d="M 600 380 L 615 440" class="arrow"/>
  <text x="620" y="410" class="label">registerSyncMethods</text>

  <path d="M 700 380 L 845 440" class="arrow"/>
  <text x="790" y="410" class="label">registerIdentityMethods</text>

  <path d="M 800 380 L 1075 440" class="arrow"/>
  <text x="960" y="410" class="label">registerAdminMethods</text>

  <!-- Domain Modules -->
  <rect x="50" y="440" width="210" height="100" class="module" rx="5"/>
  <text x="155" y="465" class="text" font-weight="bold">XrpcServerPack</text>
  <text x="60" y="485" class="code">registerMethodsWithRegistry:</text>
  <text x="155" y="505" class="text">Registers:</text>
  <text x="60" y="520" class="code">com.atproto.server.*</text>

  <rect x="280" y="440" width="210" height="100" class="module" rx="5"/>
  <text x="385" y="465" class="text" font-weight="bold">XrpcRepoPack</text>
  <text x="290" y="485" class="code">registerMethodsWithRegistry:</text>
  <text x="385" y="505" class="text">Registers:</text>
  <text x="290" y="520" class="code">com.atproto.repo.*</text>

  <rect x="510" y="440" width="210" height="100" class="module" rx="5"/>
  <text x="615" y="465" class="text" font-weight="bold">XrpcSyncPack</text>
  <text x="520" y="485" class="code">registerMethodsWithRegistry:</text>
  <text x="615" y="505" class="text">Registers:</text>
  <text x="520" y="520" class="code">com.atproto.sync.*</text>

  <rect x="740" y="440" width="210" height="100" class="module" rx="5"/>
  <text x="845" y="465" class="text" font-weight="bold">XrpcIdentityPack</text>
  <text x="750" y="485" class="code">registerMethodsWithRegistry:</text>
  <text x="845" y="505" class="text">Registers:</text>
  <text x="750" y="520" class="code">com.atproto.identity.*</text>

  <rect x="970" y="440" width="210" height="100" class="module" rx="5"/>
  <text x="1075" y="465" class="text" font-weight="bold">XrpcAdminPack</text>
  <text x="980" y="485" class="code">registerMethodsWithRegistry:</text>
  <text x="1075" y="505" class="text">Registers:</text>
  <text x="980" y="520" class="code">com.atproto.admin.*</text>

  <!-- Arrows down from modules -->
  <path d="M 155 540 L 155 580" class="arrow"/>
  <path d="M 385 540 L 385 580" class="arrow"/>
  <path d="M 615 540 L 615 580" class="arrow"/>
  <path d="M 845 540 L 845 580" class="arrow"/>
  <path d="M 1075 540 L 1075 580" class="arrow"/>

  <!-- Step 4: Register Individual Methods -->
  <rect x="50" y="580" width="210" height="120" class="registry" rx="5"/>
  <text x="155" y="605" class="step">Step 4a: Register Methods</text>
  <text x="60" y="625" class="code">[registry registerMethod:</text>
  <text x="60" y="640" class="code">@"com.atproto.server.createAccount"</text>
  <text x="60" y="655" class="code">handler:^(XrpcRequest *req,</text>
  <text x="60" y="670" class="code">XrpcResponse *res) { ... }]</text>

  <rect x="280" y="580" width="210" height="120" class="registry" rx="5"/>
  <text x="385" y="605" class="step">Step 4b: Register Methods</text>
  <text x="290" y="625" class="code">[registry registerMethod:</text>
  <text x="290" y="640" class="code">@"com.atproto.repo.createRecord"</text>
  <text x="290" y="655" class="code">handler:^(XrpcRequest *req,</text>
  <text x="290" y="670" class="code">XrpcResponse *res) { ... }]</text>

  <rect x="510" y="580" width="210" height="120" class="registry" rx="5"/>
  <text x="615" y="605" class="step">Step 4c: Register Methods</text>
  <text x="520" y="625" class="code">[registry registerMethod:</text>
  <text x="520" y="640" class="code">@"com.atproto.sync.subscribeRepos"</text>
  <text x="520" y="655" class="code">handler:^(XrpcRequest *req,</text>
  <text x="520" y="670" class="code">XrpcResponse *res) { ... }]</text>

  <rect x="740" y="580" width="210" height="120" class="registry" rx="5"/>
  <text x="845" y="605" class="step">Step 4d: Register Methods</text>
  <text x="750" y="625" class="code">[registry registerMethod:</text>
  <text x="750" y="640" class="code">@"com.atproto.identity.resolveHandle"</text>
  <text x="750" y="655" class="code">handler:^(XrpcRequest *req,</text>
  <text x="750" y="670" class="code">XrpcResponse *res) { ... }]</text>

  <rect x="970" y="580" width="210" height="120" class="registry" rx="5"/>
  <text x="1075" y="605" class="step">Step 4e: Register Methods</text>
  <text x="980" y="625" class="code">[registry registerMethod:</text>
  <text x="980" y="640" class="code">@"com.atproto.admin.emitModerationEvent"</text>
  <text x="980" y="655" class="code">handler:^(XrpcRequest *req,</text>
  <text x="980" y="670" class="code">XrpcResponse *res) { ... }]</text>

  <!-- Arrows down -->
  <path d="M 200 700 L 200 740" class="arrow"/>
  <path d="M 400 700 L 400 740" class="arrow"/>
  <path d="M 600 700 L 600 740" class="arrow"/>
  <path d="M 800 700 L 800 740" class="arrow"/>
  <path d="M 1000 700 L 1000 740" class="arrow"/>

  <!-- Step 5: Registry Ready -->
  <rect x="350" y="740" width="500" height="80" class="box" rx="5"/>
  <text x="600" y="765" class="step">Step 5: Registry Ready</text>
  <text x="600" y="785" class="text">All methods registered in internal map</text>
  <text x="360" y="805" class="code">methodHandlers[NSID] = handler block</text>

  <!-- Arrow -->
  <path d="M 600 820 L 600 860" class="arrow"/>

  <!-- Step 6: Request Dispatch -->
  <rect x="350" y="860" width="500" height="100" class="box" rx="5"/>
  <text x="600" y="885" class="step">Step 6: Request Dispatch</text>
  <text x="600" y="905" class="text">When request arrives, dispatcher looks up NSID</text>
  <text x="360" y="925" class="code">handler = methodHandlers[request.nsid]</text>
  <text x="600" y="945" class="text">Handler block executes with request/response</text>
</svg>
