<?xml version="1.0" encoding="UTF-8"?>
<svg xmlns="http://www.w3.org/2000/svg" viewBox="0 0 1000 650" width="1000" height="650">
  <defs>
    <style>
      .title { font: bold 20px sans-serif; fill: #333; }
      .label { font: 14px sans-serif; fill: #333; }
      .small { font: 12px sans-serif; fill: #666; }
      .tiny { font: 10px sans-serif; fill: #666; }
      .box { fill: #e3f2fd; stroke: #1976d2; stroke-width: 2; }
      .db { fill: #f3e5f5; stroke: #7b1fa2; stroke-width: 2; }
      .batch { fill: #fff3e0; stroke: #f57c00; stroke-width: 2; }
      .client { fill: #e8f5e9; stroke: #388e3c; stroke-width: 2; }
      .arrow { fill: none; stroke: #333; stroke-width: 2; marker-end: url(#arrowhead); }
      .arrow-batch { fill: none; stroke: #f57c00; stroke-width: 2; marker-end: url(#arrowhead-batch); stroke-dasharray: 5,5; }
      .event { fill: #fff; stroke: #666; stroke-width: 1; }
    </style>
    <marker id="arrowhead" markerWidth="10" markerHeight="10" refX="9" refY="3" orient="auto">
      <polygon points="0 0, 10 3, 0 6" fill="#333" />
    </marker>
    <marker id="arrowhead-batch" markerWidth="10" markerHeight="10" refX="9" refY="3" orient="auto">
      <polygon points="0 0, 10 3, 0 6" fill="#f57c00" />
    </marker>
  </defs>

  <!-- Title -->
  <text x="500" y="30" text-anchor="middle" class="title">Event Replay Mechanism</text>
  <text x="500" y="50" text-anchor="middle" class="small">Batch Fetching with Backpressure Control</text>

  <!-- Timeline -->
  <line x1="50" y1="100" x2="950" y2="100" stroke="#999" stroke-width="1"/>
  <text x="50" y="90" class="small">Cursor: 1000</text>
  <text x="950" y="90" text-anchor="end" class="small">Current: 1500</text>

  <!-- Database -->
  <rect x="50" y="120" width="200" height="80" class="db" rx="5"/>
  <text x="150" y="145" text-anchor="middle" class="label">Sequencer Database</text>
  <text x="150" y="165" text-anchor="middle" class="small">SELECT * FROM sequencer</text>
  <text x="150" y="183" text-anchor="middle" class="small">WHERE seq > ? LIMIT 100</text>

  <!-- Batch 1 -->
  <rect x="300" y="120" width="150" height="80" class="batch" rx="5"/>
  <text x="375" y="140" text-anchor="middle" class="label">Batch 1</text>
  <text x="375" y="158" text-anchor="middle" class="small">Events 1001-1100</text>
  <text x="375" y="176" text-anchor="middle" class="small">100 events</text>
  <text x="375" y="192" text-anchor="middle" class="tiny">fetchCursor = 1000</text>

  <path d="M 250 160 L 300 160" class="arrow"/>

  <!-- Batch 2 -->
  <rect x="500" y="120" width="150" height="80" class="batch" rx="5"/>
  <text x="575" y="140" text-anchor="middle" class="label">Batch 2</text>
  <text x="575" y="158" text-anchor="middle" class="small">Events 1101-1200</text>
  <text x="575" y="176" text-anchor="middle" class="small">100 events</text>
  <text x="575" y="192" text-anchor="middle" class="tiny">fetchCursor = 1100</text>

  <path d="M 450 160 L 500 160" class="arrow"/>

  <!-- Batch N -->
  <rect x="700" y="120" width="150" height="80" class="batch" rx="5"/>
  <text x="775" y="140" text-anchor="middle" class="label">Batch N</text>
  <text x="775" y="158" text-anchor="middle" class="small">Events 1401-1500</text>
  <text x="775" y="176" text-anchor="middle" class="small">100 events</text>
  <text x="775" y="192" text-anchor="middle" class="tiny">fetchCursor = 1400</text>

  <path d="M 650 160 L 700 160" class="arrow"/>
  <text x="675" y="155" text-anchor="middle" class="small">...</text>

  <!-- Client -->
  <rect x="300" y="240" width="550" height="80" class="client" rx="5"/>
  <text x="575" y="265" text-anchor="middle" class="label">Client Connection</text>
  <text x="575" y="285" text-anchor="middle" class="small">Receives events with backpressure check</text>
  <text x="575" y="305" text-anchor="middle" class="small">pendingSendCount &lt; 512 &amp;&amp; pendingSendBytes &lt; 16MB</text>

  <!-- Arrows from batches to client -->
  <path d="M 375 200 L 375 240" class="arrow-batch"/>
  <path d="M 575 200 L 575 240" class="arrow-batch"/>
  <path d="M 775 200 L 775 240" class="arrow-batch"/>

  <!-- Replay Loop -->
  <text x="50" y="360" class="label" font-weight="bold">Replay Loop:</text>

  <rect x="50" y="380" width="900" height="240" fill="#f5f5f5" stroke="#999" stroke-width="1" rx="5"/>

  <!-- Step 1 -->
  <text x="70" y="405" class="label">1. Fetch Batch</text>
  <rect x="90" y="415" width="380" height="50" class="box" rx="3"/>
  <text x="280" y="435" text-anchor="middle" class="small">
    events = getEventsSince(cursor, limit=100)
  </text>
  <text x="280" y="453" text-anchor="middle" class="tiny">
    Returns array of {seq, type, data, created_at}
  </text>

  <!-- Step 2 -->
  <text x="520" y="405" class="label">2. Check Limits</text>
  <rect x="540" y="415" width="380" height="50" class="box" rx="3"/>
  <text x="730" y="435" text-anchor="middle" class="small">
    if (replayedCount > maxReplayEvents) → stop
  </text>
  <text x="730" y="453" text-anchor="middle" class="tiny">
    Default: 10,000 events max
  </text>

  <!-- Step 3 -->
  <text x="70" y="490" class="label">3. Send Events</text>
  <rect x="90" y="500" width="380" height="50" class="box" rx="3"/>
  <text x="280" y="520" text-anchor="middle" class="small">
    for each event: sendEventData(data, connection)
  </text>
  <text x="280" y="538" text-anchor="middle" class="tiny">
    With backpressure check on each send
  </text>

  <!-- Step 4 -->
  <text x="520" y="490" class="label">4. Update Cursor</text>
  <rect x="540" y="500" width="380" height="50" class="box" rx="3"/>
  <text x="730" y="520" text-anchor="middle" class="small">
    fetchCursor = event.seq
  </text>
  <text x="730" y="538" text-anchor="middle" class="tiny">
    Track position for next batch
  </text>

  <!-- Step 5 -->
  <text x="70" y="575" class="label">5. Check Completion</text>
  <rect x="90" y="585" width="830" height="25" class="box" rx="3"/>
  <text x="505" y="602" text-anchor="middle" class="small">
    if (events.count &lt; batchSize || fetchCursor >= currentSeq) → done, switch to live mode
  </text>

  <!-- Performance Metrics -->
  <text x="50" y="650" class="label" font-weight="bold">Performance Characteristics:</text>

  <!-- Metric 1 -->
  <circle cx="70" cy="675" r="4" fill="#4caf50"/>
  <text x="85" y="679" class="small">
    <tspan font-weight="bold">Batch Size:</tspan> 100 events per query (configurable)
  </text>

  <!-- Metric 2 -->
  <circle cx="520" cy="675" r="4" fill="#4caf50"/>
  <text x="535" y="679" class="small">
    <tspan font-weight="bold">Max Replay:</tspan> 10,000 events (configurable)
  </text>

  <!-- Metric 3 -->
  <circle cx="70" cy="700" r="4" fill="#4caf50"/>
  <text x="85" y="704" class="small">
    <tspan font-weight="bold">Backpressure:</tspan> Max 512 pending sends or 16MB buffer
  </text>

  <!-- Metric 4 -->
  <circle cx="520" cy="700" r="4" fill="#4caf50"/>
  <text x="535" y="704" class="small">
    <tspan font-weight="bold">Database:</tspan> Indexed by seq for fast cursor queries
  </text>

  <!-- Metric 5 -->
  <circle cx="70" cy="725" r="4" fill="#4caf50"/>
  <text x="85" y="729" class="small">
    <tspan font-weight="bold">Memory:</tspan> Only one batch in memory at a time
  </text>

  <!-- Metric 6 -->
  <circle cx="520" cy="725" r="4" fill="#4caf50"/>
  <text x="535" y="729" class="small">
    <tspan font-weight="bold">Throughput:</tspan> ~1000-5000 events/sec typical
  </text>
</svg>
