<?xml version="1.0" encoding="UTF-8"?>
<svg xmlns="http://www.w3.org/2000/svg" xmlns:xlink="http://www.w3.org/1999/xlink" width="1200" height="1400" viewBox="0 0 1200 1400">
  <defs>
    <style>
      .box { fill: #e8f4f8; stroke: #0066cc; stroke-width: 2; }
      .service-box { fill: #fff4e6; stroke: #ff9900; stroke-width: 2; }
      .db-box { fill: #f0e6ff; stroke: #6600cc; stroke-width: 2; }
      .config-box { fill: #e6ffe6; stroke: #00aa00; stroke-width: 2; }
      .error-box { fill: #ffe6e6; stroke: #cc0000; stroke-width: 2; }
      .text { font-family: Arial, sans-serif; font-size: 14px; }
      .title { font-family: Arial, sans-serif; font-size: 16px; font-weight: bold; }
      .label { font-family: Arial, sans-serif; font-size: 12px; fill: #333; }
      .arrow { stroke: #333; stroke-width: 2; fill: none; marker-end: url(#arrowhead); }
      .error-arrow { stroke: #cc0000; stroke-width: 2; fill: none; marker-end: url(#error-arrowhead); stroke-dasharray: 5,5; }
      .dashed { stroke-dasharray: 5,5; }
    </style>
    <marker id="arrowhead" markerWidth="10" markerHeight="10" refX="9" refY="3" orient="auto">
      <polygon points="0 0, 10 3, 0 6" fill="#333" />
    </marker>
    <marker id="error-arrowhead" markerWidth="10" markerHeight="10" refX="9" refY="3" orient="auto">
      <polygon points="0 0, 10 3, 0 6" fill="#cc0000" />
    </marker>
  </defs>

  <!-- Title -->
  <text x="600" y="30" text-anchor="middle" class="title" font-size="20">PDSApplication Service Initialization Flow</text>

  <!-- Start -->
  <circle cx="600" cy="70" r="15" fill="#00aa00" stroke="#006600" stroke-width="2"/>
  <text x="600" y="75" text-anchor="middle" class="label" fill="white" font-weight="bold">START</text>

  <!-- Arrow down -->
  <path d="M 600 85 L 600 120" class="arrow"/>

  <!-- ATProtoServiceConfiguration Load -->
  <rect x="400" y="120" width="400" height="70" class="config-box" rx="5"/>
  <text x="600" y="145" text-anchor="middle" class="title">1. Load ATProtoServiceConfiguration</text>
  <text x="600" y="165" text-anchor="middle" class="label">Read config.json (host, port, database paths)</text>

  <!-- Arrow down -->
  <path d="M 600 190 L 600 225" class="arrow"/>

  <!-- PDSServiceDatabases Init -->
  <rect x="350" y="225" width="500" height="90" class="db-box" rx="5"/>
  <text x="600" y="250" text-anchor="middle" class="title">2. Initialize PDSServiceDatabases</text>
  <text x="600" y="270" text-anchor="middle" class="label">Create shared service database</text>
  <text x="600" y="285" text-anchor="middle" class="label">Initialize DID cache, sequencer tables</text>
  <text x="600" y="300" text-anchor="middle" class="label">Run migrations if needed</text>

  <!-- Arrow down -->
  <path d="M 600 315 L 600 350" class="arrow"/>

  <!-- PDSDatabasePool Init -->
  <rect x="350" y="350" width="500" height="90" class="db-box" rx="5"/>
  <text x="600" y="375" text-anchor="middle" class="title">3. Initialize PDSDatabasePool</text>
  <text x="600" y="395" text-anchor="middle" class="label">Create per-user database pool</text>
  <text x="600" y="410" text-anchor="middle" class="label">Set connection limits and cache size</text>
  <text x="600" y="425" text-anchor="middle" class="label">Prepare database templates</text>

  <!-- Arrow down -->
  <path d="M 600 440 L 600 475" class="arrow"/>

  <!-- PDSApplication Init -->
  <rect x="300" y="475" width="600" height="80" class="box" rx="5"/>
  <text x="600" y="500" text-anchor="middle" class="title">4. Create PDSApplication Instance</text>
  <text x="600" y="520" text-anchor="middle" class="label">Initialize with configuration and database pools</text>

  <!-- Arrow down -->
  <path d="M 600 555 L 600 590" class="arrow"/>

  <!-- Services Initialization - Parallel -->
  <text x="600" y="585" text-anchor="middle" class="label" font-style="italic">Initialize Services (in sequence):</text>

  <!-- Service 1: Account Service -->
  <rect x="50" y="610" width="160" height="80" class="service-box" rx="5"/>
  <text x="130" y="635" text-anchor="middle" class="title">PDSAccountService</text>
  <text x="130" y="655" text-anchor="middle" class="label">Account creation</text>
  <text x="130" y="670" text-anchor="middle" class="label">Auth, tokens</text>

  <!-- Service 2: Record Service -->
  <rect x="230" y="610" width="160" height="80" class="service-box" rx="5"/>
  <text x="310" y="635" text-anchor="middle" class="title">PDSRecordService</text>
  <text x="310" y="655" text-anchor="middle" class="label">Record CRUD</text>
  <text x="310" y="670" text-anchor="middle" class="label">operations</text>

  <!-- Service 3: Blob Service -->
  <rect x="410" y="610" width="160" height="80" class="service-box" rx="5"/>
  <text x="490" y="635" text-anchor="middle" class="title">PDSBlobService</text>
  <text x="490" y="655" text-anchor="middle" class="label">Blob upload</text>
  <text x="490" y="670" text-anchor="middle" class="label">retrieval</text>

  <!-- Service 4: Repository Service -->
  <rect x="590" y="610" width="160" height="80" class="service-box" rx="5"/>
  <text x="670" y="635" text-anchor="middle" class="title">PDSRepositoryService</text>
  <text x="670" y="655" text-anchor="middle" class="label">MST, commits</text>
  <text x="670" y="670" text-anchor="middle" class="label">sync</text>

  <!-- Service 5: Admin Controller -->
  <rect x="770" y="610" width="160" height="80" class="service-box" rx="5"/>
  <text x="850" y="635" text-anchor="middle" class="title">PDSAdminController</text>
  <text x="850" y="655" text-anchor="middle" class="label">Moderation</text>
  <text x="850" y="670" text-anchor="middle" class="label">takedowns</text>

  <!-- Service 6: Relay Service -->
  <rect x="950" y="610" width="160" height="80" class="service-box" rx="5"/>
  <text x="1030" y="635" text-anchor="middle" class="title">PDSRelayService</text>
  <text x="1030" y="655" text-anchor="middle" class="label">Relay</text>
  <text x="1030" y="670" text-anchor="middle" class="label">notifications</text>

  <!-- Arrows from PDSApplication to services -->
  <path d="M 450 555 L 130 610" class="arrow"/>
  <path d="M 500 555 L 310 610" class="arrow"/>
  <path d="M 550 555 L 490 610" class="arrow"/>
  <path d="M 600 555 L 670 610" class="arrow"/>
  <path d="M 650 555 L 850 610" class="arrow"/>
  <path d="M 700 555 L 1030 610" class="arrow"/>

  <!-- Arrows from services back to PDSApplication -->
  <path d="M 130 690 L 450 750" class="arrow"/>
  <path d="M 310 690 L 500 750" class="arrow"/>
  <path d="M 490 690 L 550 750" class="arrow"/>
  <path d="M 670 690 L 600 750" class="arrow"/>
  <path d="M 850 690 L 650 750" class="arrow"/>
  <path d="M 1030 690 L 700 750" class="arrow"/>

  <!-- Services Registered -->
  <rect x="300" y="750" width="600" height="70" class="box" rx="5"/>
  <text x="600" y="775" text-anchor="middle" class="title">5. Services Registered with PDSApplication</text>
  <text x="600" y="795" text-anchor="middle" class="label">All services initialized and ready to handle requests</text>

  <!-- Arrow down -->
  <path d="M 600 820 L 600 855" class="arrow"/>

  <!-- HTTP Server Init -->
  <rect x="350" y="855" width="500" height="80" class="box" rx="5"/>
  <text x="600" y="880" text-anchor="middle" class="title">6. Initialize HttpServer</text>
  <text x="600" y="900" text-anchor="middle" class="label">Register XRPC routes via XrpcMethodRegistry</text>
  <text x="600" y="920" text-anchor="middle" class="label">Bind to configured port (default 2583)</text>

  <!-- Arrow down -->
  <path d="M 600 935 L 600 970" class="arrow"/>

  <!-- XRPC Method Registry -->
  <rect x="350" y="970" width="500" height="80" class="box" rx="5"/>
  <text x="600" y="995" text-anchor="middle" class="title">7. Register XRPC Methods</text>
  <text x="600" y="1015" text-anchor="middle" class="label">XrpcServerPack, XrpcRepoPack, etc.</text>
  <text x="600" y="1035" text-anchor="middle" class="label">Each domain registers its handlers</text>

  <!-- Arrow down -->
  <path d="M 600 1050 L 600 1085" class="arrow"/>

  <!-- Server Running -->
  <rect x="350" y="1085" width="500" height="70" class="box" rx="5"/>
  <text x="600" y="1110" text-anchor="middle" class="title">8. Server Ready</text>
  <text x="600" y="1130" text-anchor="middle" class="label">Listening for incoming HTTP requests</text>

  <!-- Arrow down -->
  <path d="M 600 1155 L 600 1190" class="arrow"/>

  <!-- End -->
  <circle cx="600" cy="1210" r="15" fill="#00aa00" stroke="#006600" stroke-width="2"/>
  <text x="600" y="1215" text-anchor="middle" class="label" fill="white" font-weight="bold">READY</text>

  <!-- Error Handling Path (right side) -->
  <g transform="translate(0, 0)">
    <!-- Error from Config -->
    <path d="M 800 155 L 900 155" class="error-arrow"/>
    <rect x="900" y="130" width="250" height="50" class="error-box" rx="5"/>
    <text x="1025" y="155" text-anchor="middle" class="label">Config Load Error</text>
    <text x="1025" y="170" text-anchor="middle" class="label">→ Initialization Fails</text>

    <!-- Error from Database -->
    <path d="M 850 270 L 950 270" class="error-arrow"/>
    <rect x="950" y="245" width="200" height="50" class="error-box" rx="5"/>
    <text x="1050" y="270" text-anchor="middle" class="label">Database Error</text>
    <text x="1050" y="285" text-anchor="middle" class="label">→ Rollback</text>

    <!-- Error from Service -->
    <path d="M 1130 650 L 1150 650" class="error-arrow"/>
    <rect x="1150" y="625" width="200" height="50" class="error-box" rx="5"/>
    <text x="1250" y="650" text-anchor="middle" class="label">Service Init Error</text>
    <text x="1250" y="665" text-anchor="middle" class="label">→ Cleanup</text>
  </g>

  <!-- Legend -->
  <g transform="translate(50, 1280)">
    <text x="0" y="0" class="title">Legend:</text>
    
    <rect x="0" y="15" width="20" height="20" class="config-box"/>
    <text x="30" y="30" class="label">Configuration</text>
    
    <rect x="200" y="15" width="20" height="20" class="db-box"/>
    <text x="230" y="30" class="label">Database</text>
    
    <rect x="400" y="15" width="20" height="20" class="service-box"/>
    <text x="430" y="30" class="label">Service</text>
    
    <rect x="600" y="15" width="20" height="20" class="box"/>
    <text x="630" y="30" class="label">Process</text>
    
    <rect x="800" y="15" width="20" height="20" class="error-box"/>
    <text x="830" y="30" class="label">Error Path</text>
  </g>
</svg>
