<?xml version="1.0" encoding="UTF-8"?>
<svg xmlns="http://www.w3.org/2000/svg" xmlns:xlink="http://www.w3.org/1999/xlink" width="1400" height="1600" viewBox="0 0 1400 1600">
  <defs>
    <style>
      .box { fill: #e8f4f8; stroke: #0066cc; stroke-width: 2; }
      .service-box { fill: #fff4e6; stroke: #ff9900; stroke-width: 2; }
      .db-box { fill: #f0e6ff; stroke: #6600cc; stroke-width: 2; }
      .network-box { fill: #e6f3ff; stroke: #0066cc; stroke-width: 2; }
      .text { font-family: Arial, sans-serif; font-size: 14px; }
      .title { font-family: Arial, sans-serif; font-size: 16px; font-weight: bold; }
      .label { font-family: Arial, sans-serif; font-size: 12px; fill: #333; }
      .step-label { font-family: Arial, sans-serif; font-size: 11px; fill: #666; font-weight: bold; }
      .arrow { stroke: #333; stroke-width: 2; fill: none; marker-end: url(#arrowhead); }
      .service-arrow { stroke: #ff9900; stroke-width: 2; fill: none; marker-end: url(#service-arrowhead); }
      .db-arrow { stroke: #6600cc; stroke-width: 2; fill: none; marker-end: url(#db-arrowhead); }
      .relay-arrow { stroke: #00aa00; stroke-width: 2; fill: none; marker-end: url(#relay-arrowhead); }
      .dashed { stroke-dasharray: 5,5; }
    </style>
    <marker id="arrowhead" markerWidth="10" markerHeight="10" refX="9" refY="3" orient="auto">
      <polygon points="0 0, 10 3, 0 6" fill="#333" />
    </marker>
    <marker id="service-arrowhead" markerWidth="10" markerHeight="10" refX="9" refY="3" orient="auto">
      <polygon points="0 0, 10 3, 0 6" fill="#ff9900" />
    </marker>
    <marker id="db-arrowhead" markerWidth="10" markerHeight="10" refX="9" refY="3" orient="auto">
      <polygon points="0 0, 10 3, 0 6" fill="#6600cc" />
    </marker>
    <marker id="relay-arrowhead" markerWidth="10" markerHeight="10" refX="9" refY="3" orient="auto">
      <polygon points="0 0, 10 3, 0 6" fill="#00aa00" />
    </marker>
  </defs>

  <!-- Title -->
  <text x="700" y="30" text-anchor="middle" class="title" font-size="20">Service Interaction Flow During Request Processing</text>

  <!-- HTTP Client -->
  <rect x="500" y="60" width="400" height="60" class="network-box" rx="5"/>
  <text x="700" y="95" text-anchor="middle" class="text">HTTP Client Request</text>

  <!-- Arrow down -->
  <path d="M 700 120 L 700 160" class="arrow"/>

  <!-- HttpServer -->
  <rect x="450" y="160" width="500" height="70" class="network-box" rx="5"/>
  <text x="700" y="185" text-anchor="middle" class="title">1. HttpServer</text>
  <text x="700" y="205" text-anchor="middle" class="label">Route matching, TLS termination</text>

  <!-- Arrow down -->
  <path d="M 700 230 L 700 270" class="arrow"/>

  <!-- XrpcDispatcher -->
  <rect x="450" y="270" width="500" height="70" class="network-box" rx="5"/>
  <text x="700" y="295" text-anchor="middle" class="title">2. XrpcDispatcher</text>
  <text x="700" y="315" text-anchor="middle" class="label">Route by NSID, verify auth (JWT/DPoP)</text>

  <!-- Arrow down -->
  <path d="M 700 340 L 700 380" class="arrow"/>

  <!-- XrpcMethodRegistry -->
  <rect x="450" y="380" width="500" height="70" class="network-box" rx="5"/>
  <text x="700" y="405" text-anchor="middle" class="title">3. XrpcMethodRegistry</text>
  <text x="700" y="425" text-anchor="middle" class="label">Look up handler (e.g., XrpcRepoMethods)</text>

  <!-- Arrow down -->
  <path d="M 700 450 L 700 490" class="arrow"/>

  <!-- Domain Handler -->
  <rect x="450" y="490" width="500" height="70" class="box" rx="5"/>
  <text x="700" y="515" text-anchor="middle" class="title">4. Domain Handler</text>
  <text x="700" y="535" text-anchor="middle" class="label">Parse request, validate parameters</text>

  <!-- Arrow down -->
  <path d="M 700 560 L 700 600" class="arrow"/>

  <!-- Service Layer - Main Service -->
  <rect x="350" y="600" width="700" height="80" class="service-box" rx="5"/>
  <text x="700" y="625" text-anchor="middle" class="title">5. Primary Service (e.g., PDSRecordService)</text>
  <text x="700" y="645" text-anchor="middle" class="label">Validate business logic, prepare data</text>

  <!-- Arrows to supporting services -->
  <path d="M 500 680 L 300 750" class="service-arrow" stroke-dasharray="5,5"/>
  <text x="380" y="710" class="step-label">calls</text>

  <path d="M 700 680 L 700 750" class="service-arrow" stroke-dasharray="5,5"/>
  <text x="710" y="710" class="step-label">calls</text>

  <path d="M 900 680 L 1100 750" class="service-arrow" stroke-dasharray="5,5"/>
  <text x="980" y="710" class="step-label">calls</text>

  <!-- Supporting Services -->
  <rect x="150" y="750" width="300" height="80" class="service-box" rx="5"/>
  <text x="300" y="775" text-anchor="middle" class="title">PDSRepositoryService</text>
  <text x="300" y="795" text-anchor="middle" class="label">Update MST, create commits</text>

  <rect x="550" y="750" width="300" height="80" class="service-box" rx="5"/>
  <text x="700" y="775" text-anchor="middle" class="title">PDSBlobService</text>
  <text x="700" y="795" text-anchor="middle" class="label">Handle blob operations</text>

  <rect x="950" y="750" width="300" height="80" class="service-box" rx="5"/>
  <text x="1100" y="775" text-anchor="middle" class="title">PDSAdminController</text>
  <text x="1100" y="795" text-anchor="middle" class="label">Apply labels, moderation</text>

  <!-- Arrows from services to databases -->
  <path d="M 300 830 L 250 900" class="db-arrow"/>
  <path d="M 700 830 L 700 900" class="db-arrow"/>
  <path d="M 1100 830 L 1150 900" class="db-arrow"/>

  <!-- Database Layer -->
  <rect x="100" y="900" width="350" height="100" class="db-box" rx="5"/>
  <text x="275" y="925" text-anchor="middle" class="title">PDSServiceDatabases</text>
  <text x="275" y="945" text-anchor="middle" class="label">(Shared)</text>
  <text x="275" y="965" text-anchor="middle" class="label">Service DB, DID Cache</text>

  <rect x="525" y="900" width="350" height="100" class="db-box" rx="5"/>
  <text x="700" y="925" text-anchor="middle" class="title">PDSDatabasePool</text>
  <text x="700" y="945" text-anchor="middle" class="label">(Per-User)</text>
  <text x="700" y="965" text-anchor="middle" class="label">Actor DB for user</text>

  <rect x="950" y="900" width="350" height="100" class="db-box" rx="5"/>
  <text x="1125" y="925" text-anchor="middle" class="title">SQLite Queries</text>
  <text x="1125" y="945" text-anchor="middle" class="label">Execute transactions</text>
  <text x="1125" y="965" text-anchor="middle" class="label">WAL mode enabled</text>

  <!-- Arrows back from databases -->
  <path d="M 250 1000 L 300 1050" class="db-arrow"/>
  <path d="M 700 1000 L 700 1050" class="db-arrow"/>
  <path d="M 1150 1000 L 1100 1050" class="db-arrow"/>

  <!-- Services Process Results -->
  <rect x="350" y="1050" width="700" height="80" class="service-box" rx="5"/>
  <text x="700" y="1075" text-anchor="middle" class="title">6. Services Process Results</text>
  <text x="700" y="1095" text-anchor="middle" class="label">Aggregate data, prepare response</text>

  <!-- Arrow down -->
  <path d="M 700 1130 L 700 1170" class="arrow"/>

  <!-- Relay Notification -->
  <rect x="350" y="1170" width="700" height="80" class="service-box" rx="5"/>
  <text x="700" y="1195" text-anchor="middle" class="title">7. PDSRelayService</text>
  <text x="700" y="1215" text-anchor="middle" class="label">Notify external relays of updates (async)</text>

  <!-- Arrow to relay -->
  <path d="M 1050 1210 L 1200 1210" class="relay-arrow"/>
  <rect x="1200" y="1180" width="150" height="60" class="service-box" rx="5"/>
  <text x="1275" y="1205" text-anchor="middle" class="label">External</text>
  <text x="1275" y="1220" text-anchor="middle" class="label">Relays</text>

  <!-- Arrow down -->
  <path d="M 700 1250 L 700 1290" class="arrow"/>

  <!-- Response Serialization -->
  <rect x="450" y="1290" width="500" height="70" class="network-box" rx="5"/>
  <text x="700" y="1315" text-anchor="middle" class="title">8. Response Serialization</text>
  <text x="700" y="1335" text-anchor="middle" class="label">Encode to CBOR/JSON, add headers</text>

  <!-- Arrow down -->
  <path d="M 700 1360 L 700 1400" class="arrow"/>

  <!-- HTTP Response -->
  <rect x="500" y="1400" width="400" height="60" class="network-box" rx="5"/>
  <text x="700" y="1435" text-anchor="middle" class="text">HTTP Response to Client</text>

  <!-- Legend -->
  <g transform="translate(50, 1500)">
    <text x="0" y="0" class="title">Legend:</text>
    
    <line x1="0" y1="15" x2="20" y2="15" class="arrow"/>
    <text x="30" y="20" class="label">Request/Response Flow</text>
    
    <line x1="0" y1="40" x2="20" y2="40" class="service-arrow" stroke-dasharray="5,5"/>
    <text x="30" y="45" class="label">Service-to-Service Call</text>
    
    <line x1="0" y1="65" x2="20" y2="65" class="db-arrow"/>
    <text x="30" y="70" class="label">Database Access</text>
    
    <line x1="0" y1="90" x2="20" y2="90" class="relay-arrow"/>
    <text x="30" y="95" class="label">Relay Notification</text>
  </g>

  <!-- Detailed Interaction Example -->
  <g transform="translate(50, 1500)">
    <text x="700" y="0" class="title">Example: Create Record Request</text>
    
    <text x="700" y="25" class="label">1. Client: POST /xrpc/com.atproto.repo.createRecord</text>
    <text x="700" y="45" class="label">2. HttpServer routes to XrpcDispatcher</text>
    <text x="700" y="65" class="label">3. XrpcDispatcher verifies JWT token</text>
    <text x="700" y="85" class="label">4. XrpcMethodRegistry finds XrpcRepoMethods handler</text>
    <text x="700" y="105" class="label">5. XrpcRepoMethods calls PDSRecordService.createRecord</text>
    <text x="700" y="125" class="label">6. PDSRecordService calls PDSRepositoryService to update MST</text>
    <text x="700" y="145" class="label">7. Both services access PDSDatabasePool for user's actor DB</text>
    <text x="700" y="165" class="label">8. PDSRelayService notifies relays asynchronously</text>
    <text x="700" y="185" class="label">9. Response serialized and returned to client</text>
  </g>
</svg>
