<svg viewBox="0 0 1200 900" xmlns="http://www.w3.org/2000/svg">
  <!-- Define styles -->
  <defs>
    <style>
      .box { fill: #e8f4f8; stroke: #0066cc; stroke-width: 2; }
      .dispatcher { fill: #fff4e6; stroke: #ff9900; stroke-width: 2; }
      .handler { fill: #e8f5e9; stroke: #4caf50; stroke-width: 2; }
      .text { font-family: Arial, sans-serif; font-size: 13px; text-anchor: middle; }
      .title { font-family: Arial, sans-serif; font-size: 18px; font-weight: bold; text-anchor: middle; }
      .arrow { stroke: #333; stroke-width: 2; fill: none; marker-end: url(#arrowhead); }
      .label { font-family: Arial, sans-serif; font-size: 11px; fill: #333; }
      .nsid { font-family: monospace; font-size: 11px; fill: #666; }
    </style>
    <marker id="arrowhead" markerWidth="10" markerHeight="10" refX="9" refY="3" orient="auto">
      <polygon points="0 0, 10 3, 0 6" fill="#333" />
    </marker>
  </defs>

  <!-- Title -->
  <text x="600" y="30" class="title">XRPC Routing by NSID</text>

  <!-- Incoming Request -->
  <rect x="450" y="60" width="300" height="60" class="box" rx="5"/>
  <text x="600" y="95" class="text">XRPC Request</text>

  <!-- Arrow -->
  <path d="M 600 120 L 600 160" class="arrow"/>
  <text x="620" y="145" class="label">NSID: com.atproto.repo.createRecord</text>

  <!-- XrpcDispatcher -->
  <rect x="400" y="160" width="400" height="80" class="dispatcher" rx="5"/>
  <text x="600" y="190" class="text" font-weight="bold">XrpcDispatcher</text>
  <text x="600" y="210" class="text">• Extract NSID from request</text>
  <text x="600" y="230" class="text">• Look up handler in registry</text>

  <!-- Arrow -->
  <path d="M 600 240 L 600 280" class="arrow"/>

  <!-- XrpcMethodRegistry -->
  <rect x="400" y="280" width="400" height="80" class="dispatcher" rx="5"/>
  <text x="600" y="310" class="text" font-weight="bold">XrpcMethodRegistry</text>
  <text x="600" y="330" class="text">• Maintains NSID → Handler map</text>
  <text x="600" y="350" class="text">• Routes to domain modules</text>

  <!-- Arrows to domain handlers -->
  <path d="M 400 360 L 200 420" class="arrow"/>
  <text x="280" y="385" class="label">com.atproto.server.*</text>

  <path d="M 500 360 L 350 420" class="arrow"/>
  <text x="410" y="385" class="label">com.atproto.repo.*</text>

  <path d="M 600 360 L 600 420" class="arrow"/>
  <text x="620" y="385" class="label">com.atproto.sync.*</text>

  <path d="M 700 360 L 850 420" class="arrow"/>
  <text x="790" y="385" class="label">com.atproto.identity.*</text>

  <path d="M 800 360 L 1000 420" class="arrow"/>
  <text x="920" y="385" class="label">app.bsky.*</text>

  <!-- Domain Handlers -->
  <rect x="50" y="420" width="300" height="80" class="handler" rx="5"/>
  <text x="200" y="450" class="text" font-weight="bold">XrpcServerMethods</text>
  <text x="200" y="470" class="text">• describeServer</text>
  <text x="200" y="490" class="text">• createAccount</text>

  <rect x="250" y="420" width="300" height="80" class="handler" rx="5"/>
  <text x="400" y="450" class="text" font-weight="bold">XrpcRepoMethods</text>
  <text x="400" y="470" class="text">• createRecord</text>
  <text x="400" y="490" class="text">• deleteRecord</text>

  <rect x="450" y="420" width="300" height="80" class="handler" rx="5"/>
  <text x="600" y="450" class="text" font-weight="bold">XrpcSyncMethods</text>
  <text x="600" y="470" class="text">• getRepo</text>
  <text x="600" y="490" class="text">• subscribeRepos</text>

  <rect x="650" y="420" width="300" height="80" class="handler" rx="5"/>
  <text x="800" y="450" class="text" font-weight="bold">XrpcIdentityMethods</text>
  <text x="800" y="470" class="text">• resolveHandle</text>
  <text x="800" y="490" class="text">• getProfile</text>

  <rect x="850" y="420" width="300" height="80" class="handler" rx="5"/>
  <text x="1000" y="450" class="text" font-weight="bold">XrpcAppBskyMethods</text>
  <text x="1000" y="470" class="text">• createPost</text>
  <text x="1000" y="490" class="text">• likeRecord</text>

  <!-- Arrows down from handlers -->
  <path d="M 200 500 L 200 540" class="arrow"/>
  <path d="M 400 500 L 400 540" class="arrow"/>
  <path d="M 600 500 L 600 540" class="arrow"/>
  <path d="M 800 500 L 800 540" class="arrow"/>
  <path d="M 1000 500 L 1000 540" class="arrow"/>

  <!-- Service Layer -->
  <rect x="50" y="540" width="300" height="80" class="box" rx="5"/>
  <text x="200" y="570" class="text" font-weight="bold">PDSAccountService</text>
  <text x="200" y="590" class="text">• Account creation</text>
  <text x="200" y="610" class="text">• Token management</text>

  <rect x="250" y="540" width="300" height="80" class="box" rx="5"/>
  <text x="400" y="570" class="text" font-weight="bold">PDSRecordService</text>
  <text x="400" y="590" class="text">• Record CRUD</text>
  <text x="400" y="610" class="text">• MST updates</text>

  <rect x="450" y="540" width="300" height="80" class="box" rx="5"/>
  <text x="600" y="570" class="text" font-weight="bold">PDSRepositoryService</text>
  <text x="600" y="590" class="text">• Repo sync</text>
  <text x="600" y="610" class="text">• Commit processing</text>

  <rect x="650" y="540" width="300" height="80" class="box" rx="5"/>
  <text x="800" y="570" class="text" font-weight="bold">PDSIdentityService</text>
  <text x="800" y="590" class="text">• Handle resolution</text>
  <text x="800" y="610" class="text">• DID lookup</text>

  <rect x="850" y="540" width="300" height="80" class="box" rx="5"/>
  <text x="1000" y="570" class="text" font-weight="bold">PDSBlobService</text>
  <text x="1000" y="590" class="text">• Blob upload</text>
  <text x="1000" y="610" class="text">• Blob retrieval</text>

  <!-- Legend -->
  <text x="50" y="700" class="title" text-anchor="start">Routing Flow:</text>
  <text x="50" y="730" class="text" text-anchor="start">1. Request arrives with NSID (e.g., com.atproto.repo.createRecord)</text>
  <text x="50" y="755" class="text" text-anchor="start">2. XrpcDispatcher extracts NSID and queries XrpcMethodRegistry</text>
  <text x="50" y="780" class="text" text-anchor="start">3. Registry routes to appropriate domain module (e.g., XrpcRepoMethods)</text>
  <text x="50" y="805" class="text" text-anchor="start">4. Domain handler calls corresponding service (e.g., PDSRecordService)</text>
  <text x="50" y="830" class="text" text-anchor="start">5. Service executes business logic and returns response</text>
  <text x="50" y="855" class="text" text-anchor="start">6. Response is serialized and sent back to client</text>
</svg>
